<svg id="Layer_1" data-name="Layer 1" xmlns="http://www.w3.org/2000/svg" viewBox="0 0 222.99 288.28"><defs><style>.cls-1{fill:#ef4041;}.cls-2{fill:#fff;}.cls-3{font-size:50px;font-family:Roboto-Light, Roboto;font-weight:300;letter-spacing:0.07em;}.cls-3,.cls-6{fill:#414042;}.cls-4,.cls-5{fill:#ed1c24;}.cls-5{letter-spacing:0.06em;}.cls-6{font-size:25px;font-family:Roboto-Thin, Roboto;font-weight:200;}.cls-7{letter-spacing:-0.01em;}.cls-8{letter-spacing:-0.01em;}.cls-9{letter-spacing:0.01em;}.cls-10{letter-spacing:-0.01em;}</style></defs><path class="cls-1" d="M356.4,254.31c-1.79-.16-36.09-8.51-36.09,21.11s34.21,32.94,34.21,79.66-47.66,54.83-47.66,54.83h0s-47.65-8-47.65-54.75,34.21-50,34.21-79.66-34.3-21.27-36.09-21.11c0,0-62.66,3.67-61.95,65.11.85,74.55,111.48,125.28,111.48,138.72v-.08c0-13.44,110.64-64.17,111.49-138.72C419.06,258,356.4,254.31,356.4,254.31Z" transform="translate(-195.37 -253.11)"/><path class="cls-1" d="M343.63,353.64c0,24.92-16.46,45.13-36.77,45.13s-36.76-20.21-36.76-45.13c0-16,36.76-63.32,36.76-63.32S343.63,336.47,343.63,353.64Z" transform="translate(-195.37 -253.11)"/><polygon class="cls-2" points="133.33 96.88 117.18 96.88 117.18 80.72 105.81 80.72 105.81 96.88 89.66 96.88 89.66 108.24 105.81 108.24 105.81 124.39 117.18 124.39 117.18 108.24 133.33 108.24 133.33 96.88"/><text class="cls-3" transform="translate(15.59 248.74)">One<tspan class="cls-4" x="97.71" y="0">Li</tspan><tspan class="cls-5" x="143.6" y="0">f</tspan><tspan class="cls-4" x="162.58" y="0">e</tspan></text><text class="cls-6" transform="translate(9.9 281.5)"><tspan class="cls-7">E</tspan><tspan class="cls-8" x="13.46" y="0">v</tspan><tspan x="25.24" y="0">e</tspan><tspan class="cls-9" x="37.93" y="0">r</tspan><tspan x="46.51" y="0">y d</tspan><tspan class="cls-10" x="78.11" y="0">r</tspan><tspan x="86.23" y="0">op matters</tspan></text></svg>